<?xml version="1.0" standalone="no"?>
<!DOCTYPE svg PUBLIC "-//W3C//DTD SVG 20010904//EN"
 "http://www.w3.org/TR/2001/REC-SVG-20010904/DTD/svg10.dtd">
<svg version="1.0" xmlns="http://www.w3.org/2000/svg"
 width="225.000000pt" height="225.000000pt" viewBox="0 0 225.000000 225.000000"
 preserveAspectRatio="xMidYMid meet">
<metadata>
Created by potrace 1.14, written by Peter Selinger 2001-2017
</metadata>
<g transform="translate(0.000000,225.000000) scale(0.100000,-0.100000)"
fill="#000000" stroke="none">
<path d="M1080 2154 c-13 -4 -14 -20 -9 -102 4 -53 7 -99 8 -102 1 -3 21 -4
46 -2 30 3 45 9 45 18 0 8 -10 14 -25 14 -21 0 -25 5 -25 30 0 25 4 30 25 30
16 0 25 6 25 15 0 9 -9 15 -25 15 -20 0 -25 5 -25 25 0 21 5 25 30 25 32 0 42
23 14 34 -17 6 -59 6 -84 0z"/>
<path d="M989 2133 c-1 -10 -1 -43 0 -73 l1 -55 -23 65 c-18 54 -25 64 -42 62
-11 -2 -22 -5 -24 -7 -1 -2 14 -47 34 -100 34 -86 39 -95 59 -89 32 10 36 22
36 122 0 85 -1 92 -20 92 -12 0 -21 -7 -21 -17z"/>
<path d="M1207 2083 c-4 -38 -7 -84 -7 -104 0 -35 2 -37 38 -42 20 -2 41 -1
46 3 13 12 -3 30 -26 30 -17 0 -20 5 -15 28 3 15 9 55 13 90 7 61 6 62 -18 62
-24 0 -25 -4 -31 -67z"/>
<path d="M1393 2104 c-3 -9 0 -20 8 -24 11 -7 9 -22 -9 -85 -12 -42 -20 -80
-17 -86 15 -24 34 -3 61 69 22 57 34 76 46 74 16 -3 34 15 25 24 -3 3 -28 14
-56 25 -47 17 -52 18 -58 3z"/>
<path d="M796 2097 c-17 -12 -17 -17 -1 -99 10 -47 21 -91 25 -98 11 -19 40
-4 40 20 0 23 18 26 34 6 6 -8 18 -11 29 -7 16 6 13 16 -27 99 -47 95 -62 107
-100 79z m64 -109 c0 -10 -4 -18 -10 -18 -5 0 -10 8 -10 18 0 9 -3 28 -6 42
l-5 25 15 -25 c8 -14 15 -33 16 -42z"/>
<path d="M1496 1985 c-48 -103 -50 -111 -29 -119 10 -4 19 -4 20 1 8 23 44 73
53 73 15 0 12 -16 -10 -59 -18 -36 -18 -40 -2 -46 19 -7 37 12 94 104 38 60
38 60 16 72 -22 12 -31 5 -58 -41 -7 -11 -12 -12 -20 -4 -9 9 -8 20 5 44 14
27 15 34 3 41 -27 18 -38 7 -72 -66z"/>
<path d="M642 2029 c-30 -15 -42 -27 -39 -38 8 -32 98 -161 112 -161 24 0 26
18 6 51 -11 18 -18 36 -15 41 10 16 25 7 41 -27 18 -38 21 -39 42 -26 12 8 12
14 1 40 -7 18 -22 38 -32 46 -11 7 -17 18 -14 24 8 12 -10 52 -28 63 -17 12
-28 10 -74 -13z m54 -34 c4 -8 3 -23 -1 -32 -6 -17 -7 -17 -21 1 -8 11 -14 26
-14 33 0 18 29 16 36 -2z"/>
<path d="M517 1945 c-51 -39 -64 -72 -24 -61 18 5 32 -5 78 -56 49 -54 59 -61
73 -49 14 12 11 19 -27 70 -59 76 -61 80 -46 97 8 10 9 18 2 25 -6 6 -26 -3
-56 -26z"/>
<path d="M1678 1953 c-8 -10 -34 -46 -58 -81 -42 -61 -43 -62 -24 -83 25 -28
52 -41 65 -33 7 4 3 14 -10 28 -19 20 -19 24 -5 44 14 20 17 21 39 6 30 -20
44 -1 19 27 -16 18 -17 21 -1 36 15 16 18 15 37 -2 16 -15 23 -16 33 -6 9 10
4 20 -27 47 -45 39 -48 40 -68 17z"/>
<path d="M985 1805 c-96 -21 -235 -91 -218 -110 5 -4 0 -5 -9 -2 -15 5 -16 4
-5 -14 9 -15 19 -18 37 -14 42 11 10 -11 -50 -33 -59 -21 -75 -40 -41 -49 12
-3 21 -12 21 -19 0 -26 25 -14 53 26 30 42 53 51 64 24 3 -8 11 -13 19 -10 12
5 50 -41 41 -50 -2 -3 -24 -8 -47 -12 -40 -7 -42 -8 -27 -24 15 -14 15 -17 1
-22 -9 -3 -24 -6 -34 -6 -10 0 -47 -27 -82 -61 -48 -47 -62 -66 -60 -85 2 -13
-1 -24 -7 -24 -6 0 -11 9 -11 20 0 16 -7 19 -45 18 -58 -1 -75 -14 -78 -62 -2
-43 12 -56 36 -31 23 22 40 20 27 -4 -14 -26 -13 -28 10 -34 16 -4 19 -11 15
-30 -5 -18 -2 -28 12 -35 10 -6 15 -14 11 -18 -4 -4 -20 6 -35 22 -15 16 -40
37 -55 47 l-28 17 0 -62 c0 -142 67 -301 171 -409 33 -34 62 -59 65 -56 4 3 1
45 -6 92 -11 79 -15 87 -46 111 -19 15 -34 32 -34 39 0 7 -9 24 -20 38 -24 30
-26 69 -4 102 9 15 14 35 10 48 -4 18 1 27 22 39 15 8 38 13 52 11 14 -3 31
-6 37 -7 7 -1 24 -12 38 -24 14 -12 32 -22 40 -22 9 0 24 -15 35 -33 17 -28
80 -78 80 -62 0 3 11 -2 25 -11 28 -18 31 -40 10 -68 -8 -11 -15 -36 -15 -55
0 -40 -6 -51 -35 -67 -11 -6 -20 -17 -20 -25 0 -26 -32 -74 -49 -73 -13 2 -14
-1 -5 -12 7 -8 10 -16 8 -18 -2 -1 -14 -9 -25 -17 -37 -24 -15 -53 64 -82 245
-91 504 -32 684 155 48 50 55 62 44 73 -19 19 0 75 32 100 l25 18 -6 -34 c-6
-32 -5 -32 18 13 34 64 55 158 55 245 l0 72 -42 -24 c-24 -14 -48 -25 -54 -25
-7 0 -22 19 -34 43 -29 56 -63 107 -72 107 -10 0 50 -108 79 -145 17 -20 29
-26 48 -23 36 7 33 -28 -7 -82 -18 -24 -39 -52 -47 -62 -9 -12 -14 -39 -12
-73 2 -49 -1 -55 -28 -74 -18 -13 -28 -28 -25 -36 3 -7 -12 -38 -35 -68 -30
-42 -47 -56 -71 -59 -35 -5 -42 5 -61 92 -19 83 -21 108 -10 114 17 11 13 47
-8 87 -10 19 -17 46 -14 60 6 34 -36 51 -96 39 -36 -6 -50 -5 -68 8 -12 10
-23 22 -23 28 0 6 -6 17 -14 24 -19 15 -13 114 9 144 8 11 26 37 39 57 22 32
31 37 86 46 57 9 62 8 69 -10 8 -20 71 -53 71 -37 0 6 25 7 60 3 57 -5 60 -5
60 16 0 17 -6 21 -31 21 -22 0 -32 5 -36 20 -3 11 -12 20 -20 20 -9 0 -13 -6
-9 -15 3 -8 1 -15 -4 -15 -6 0 -10 4 -10 9 0 12 -51 61 -64 61 -6 -1 -1 -9 12
-19 35 -30 26 -45 -10 -18 -43 31 -65 30 -91 -5 -14 -19 -30 -28 -49 -28 -24
0 -28 4 -28 30 0 27 3 30 30 30 20 0 30 5 30 15 0 8 -6 15 -12 15 -7 1 4 10
24 20 20 11 42 28 47 37 6 10 11 12 11 6 0 -19 58 -16 77 3 13 13 14 17 3 24
-7 4 -9 13 -6 19 8 13 -3 14 -23 2 -7 -5 -11 -13 -8 -18 3 -5 2 -15 -3 -23 -7
-12 -12 -12 -22 -2 -6 6 -20 12 -30 12 -31 0 -20 24 23 48 36 21 49 23 98 17
31 -4 66 -9 79 -10 31 -4 20 9 -47 54 -146 99 -325 134 -496 96z"/>
<path d="M387 1768 c-240 -296 -281 -700 -106 -1038 39 -75 121 -192 138 -198
6 -2 14 6 20 17 9 17 6 26 -18 53 -74 85 -138 211 -174 343 -31 113 -30 334 2
450 26 95 96 241 148 309 21 27 42 55 48 62 7 10 5 19 -6 30 -15 14 -19 12
-52 -28z"/>
<path d="M1802 1797 c-9 -10 2 -31 45 -88 66 -87 125 -208 155 -316 17 -63 21
-106 21 -228 0 -134 -2 -159 -26 -238 -33 -106 -86 -218 -138 -286 -36 -48
-37 -50 -19 -66 18 -16 20 -14 54 32 251 341 241 816 -24 1152 -43 54 -51 59
-68 38z"/>
<path d="M715 1670 c-3 -5 1 -10 10 -10 9 0 13 5 10 10 -3 6 -8 10 -10 10 -2
0 -7 -4 -10 -10z"/>
<path d="M658 1510 c12 -5 22 -14 22 -20 0 -6 5 -8 10 -5 14 9 -14 35 -37 34
-15 0 -14 -2 5 -9z"/>
<path d="M1490 1491 c-6 -12 -9 -21 -8 -22 11 -3 98 -6 98 -3 0 2 -10 14 -22
26 -15 15 -23 18 -26 9 -3 -9 -7 -9 -17 -1 -10 9 -16 6 -25 -9z"/>
<path d="M1625 1499 c-4 -5 0 -18 8 -27 7 -9 17 -25 20 -34 6 -17 37 -26 37
-10 0 4 -11 20 -25 35 -14 15 -21 27 -15 27 5 0 10 5 10 10 0 13 -27 13 -35
-1z"/>
<path d="M646 1483 c-6 -14 -5 -15 5 -6 7 7 10 15 7 18 -3 3 -9 -2 -12 -12z"/>
<path d="M1672 1338 c15 -22 68 -35 68 -17 0 5 -8 9 -19 9 -10 0 -24 7 -31 15
-20 24 -34 17 -18 -7z"/>
<path d="M553 568 c-71 -130 -103 -195 -103 -211 0 -17 81 -75 97 -70 7 3 35
36 63 74 28 38 52 69 55 69 2 0 -10 -39 -26 -86 -17 -48 -28 -93 -25 -100 7
-17 84 -57 100 -51 6 3 45 71 86 151 73 143 74 148 55 162 -11 8 -26 13 -35
12 -8 -2 -37 -47 -65 -100 -28 -54 -54 -100 -58 -104 -8 -9 18 82 44 151 10
28 19 59 19 69 0 19 -26 45 -45 46 -6 0 -42 -41 -79 -90 -38 -50 -71 -89 -73
-86 -3 2 18 48 46 101 28 54 51 103 51 110 0 14 -32 45 -47 45 -5 0 -32 -42
-60 -92z"/>
<path d="M1615 622 c-21 -5 -115 -70 -115 -80 0 -17 134 -292 143 -292 16 0
136 89 147 110 22 42 11 75 -55 163 -68 91 -87 106 -120 99z m50 -147 c58 -90
63 -106 41 -124 -17 -14 -18 -12 -85 108 -32 57 -39 77 -30 87 6 8 13 14 15
14 3 0 29 -38 59 -85z"/>
<path d="M1351 481 c-11 -7 -6 -38 26 -172 45 -187 34 -178 146 -127 58 27 67
34 61 52 -9 29 -9 29 -43 12 -54 -29 -57 -25 -101 114 -42 132 -51 145 -89
121z"/>
<path d="M916 448 c-18 -17 -32 -51 -52 -123 -15 -55 -26 -113 -26 -130 2 -79
160 -123 213 -59 14 17 29 223 19 264 -8 31 -64 70 -101 70 -15 0 -39 -10 -53
-22z m81 -53 c5 -15 -14 -195 -24 -222 -7 -17 -27 -17 -42 0 -8 10 -6 40 9
116 10 56 22 106 25 111 9 15 25 12 32 -5z"/>
<path d="M1130 276 c0 -96 3 -177 8 -179 4 -3 22 -2 40 0 l32 5 0 69 c0 40 5
71 12 75 16 10 38 -24 38 -60 0 -17 3 -42 7 -55 5 -21 10 -22 47 -17 22 4 41
8 42 9 9 9 -32 126 -50 143 -21 18 -22 23 -9 40 20 26 10 90 -18 120 -19 20
-32 24 -86 24 l-63 0 0 -174z m108 65 c-2 -25 -8 -37 -20 -39 -15 -3 -18 4
-18 41 0 50 7 62 27 45 9 -7 13 -25 11 -47z"/>
</g>
</svg>
